<svg viewBox="0 0 305 235" fill="none" xmlns="http://www.w3.org/2000/svg">
<path fill-rule="evenodd" clip-rule="evenodd" d="M94.9482 106.293C96.0566 117.483 97.1649 128.673 98.2728 139.863C104.307 136.42 110.341 132.977 116.374 129.534V155.026V161.726C116.374 162.319 116.023 164.356 116.374 164.869C116.673 165.304 118.884 165.317 119.407 165.391C122.818 165.868 126.238 166.293 129.663 166.671C138.688 167.668 148.348 169.096 157.409 167.951C165.284 166.955 172.919 164.154 180.114 160.895C182.641 159.75 185.131 158.525 187.576 157.217C188.094 156.939 189.976 156.284 190.258 155.719C190.488 155.258 189.948 153.636 189.876 153.151C189.572 151.107 189.268 149.062 188.964 147.018L184.717 118.467L192.739 126.477C193.367 127.105 194.561 128.887 195.43 129.165C196.068 129.369 197.647 128.737 198.277 128.616C202.819 127.741 207.361 126.865 211.904 125.99C212.962 125.786 215.347 125.794 216.239 125.155C216.719 124.81 216.742 124.11 216.911 123.446C218.019 119.105 219.127 114.765 220.235 110.425C220.435 109.644 221.548 107.179 221.265 106.391C221.163 106.109 220.672 105.916 220.371 105.732C213.516 101.545 206.66 97.3579 199.805 93.1706C196.049 90.8771 192.294 88.5831 188.538 86.2895C186.965 85.3284 185.033 83.5971 183.25 83.0595C182.144 82.726 180.534 82.9759 179.389 82.943C177.062 82.8767 174.735 82.8103 172.408 82.744C172.044 82.7337 170.768 82.474 170.461 82.6886C170.206 82.8672 170.312 83.116 170.228 83.5417C170.023 84.5815 170.022 85.7026 169.921 86.7579C169.84 87.6047 170.001 89.1577 169.619 89.9244C169.375 90.4143 169.685 90.2191 169.355 90.456C168.962 90.738 167.708 90.6473 167.241 90.7013C164.961 90.9664 162.681 91.2311 160.4 91.4958C157.69 91.8106 154.948 92.4015 152.225 92.1294C148.096 91.7171 143.644 91.7376 139.589 90.8679C138.536 90.6416 138.156 90.0479 137.344 89.2365C135.757 87.6523 134.187 86.0499 132.583 84.4827C131.797 83.7146 132.134 83.8449 131.323 84.1361C130.308 84.501 129.278 85.3821 128.359 85.9419C124.837 88.0868 121.316 90.2322 117.794 92.3772L96.2938 105.474C95.8451 105.747 95.3969 106.02 94.9482 106.293Z" fill="#61D2FF"/>
<path fill-rule="evenodd" clip-rule="evenodd" d="M300.592 107.684C296.16 124.511 287.246 142.858 269.288 148.221C264.922 149.525 260.675 150.509 256.14 150.013C255.708 149.965 255.347 150.026 254.937 150.034C254.201 150.048 254.836 150.312 254.011 150.057C253.368 149.859 252.766 149.362 252.096 149.142C250.314 148.559 248.414 148.447 246.603 147.976C242.153 146.818 237.567 145.389 233.255 143.792C231.225 143.041 229.359 141.994 227.449 140.987C225.508 139.964 223.45 139.328 221.487 138.389C219.936 137.647 217.278 136.681 216.187 135.289C215.024 133.805 216.633 130.645 217.093 129.067C218.657 123.699 220.52 118.409 221.695 112.933C225.755 117.638 231.389 120.551 237.221 122.43C240.386 123.45 243.641 124.187 246.933 124.648C249.921 125.067 253.145 125.573 256.141 124.979C258.402 124.53 261.241 123.491 262.856 121.765C263.432 121.148 264.124 120.019 263.801 119.124C263.391 117.987 262.196 118.522 261.55 117.674C260.987 116.936 261.075 115.208 260.896 114.309C260.578 112.717 260.142 111.169 259.61 109.637C258.577 106.661 257.289 103.68 256.981 100.514C256.712 97.7673 257.338 95.1699 258.708 92.7866C259.355 91.66 260.981 88.5948 262.568 88.7222C264.311 88.862 261.961 96.2065 261.884 97.7049C261.579 103.644 262.376 109.972 265.424 115.178C266.591 117.171 268.278 119.492 270.77 119.739C273.409 120 275.537 117.924 276.793 115.823C279.858 110.698 278.313 103.664 276.761 98.2926C274.857 91.7016 269.887 87.1589 266.745 81.2396C271.436 81.7112 273.949 84.6917 276.356 88.473C279.007 92.6359 281.071 97.6339 282.089 102.478C282.602 104.925 282.248 107.383 282.251 109.854C282.252 110.675 282.252 113.704 283.59 113.585C285.021 113.457 285.512 110.041 285.722 108.999C286.204 106.608 286.726 104.218 287.145 101.816C287.886 97.5658 288.215 93.213 289.103 88.9922C289.253 88.2789 289.552 86.2994 290.62 86.8338C291.443 87.2454 291.311 90.307 291.341 91.0186C291.415 92.7721 291.519 94.5257 291.533 96.281C291.554 98.8827 291.036 101.576 291.29 104.162C291.456 105.851 292.363 107.718 293.487 105.44C294.602 103.18 294.829 100.362 295.451 97.9315C296.104 95.3799 296.778 92.7909 298.164 90.5245C298.548 89.8958 298.961 88.8976 299.816 89.1934C300.436 89.4087 300.895 90.8799 301.087 91.3991C301.952 93.746 301.806 96.3551 301.751 98.8118C301.684 101.822 301.361 104.766 300.592 107.684ZM214.168 112.051C213.932 111.974 212.926 111.879 212.676 111.857C212.383 111.832 212.716 111.293 212.008 111.446C212.145 111.785 212.387 112.011 212.736 112.124C211.672 112.484 210.887 111.595 210.159 111.48C209.463 111.371 209.433 111.48 208.746 112.216C208.002 111.308 208.141 111.874 207.529 111.874C207.306 111.875 207.297 112.211 206.934 112.171C206.618 112.136 206.585 111.656 206.397 111.599C205.382 111.292 204.337 112.838 203.185 111.497C202.906 112.893 199.708 111.144 198.477 111.389C197.188 111.646 197.744 112.108 196.701 111.318C195.708 110.565 195.985 111.065 194.83 111.682C194.857 111.667 194.178 112.126 194.241 112.133C193.441 112.04 193.487 111.213 192.474 111.257C191.402 111.303 190.944 112.144 189.963 111.11C189.75 111.884 189.706 111.55 189.203 111.746C188.926 111.811 188.685 111.739 188.477 111.528C188.414 111.741 188.276 111.871 188.062 111.919C187.515 111.968 186.487 112.045 185.99 111.781C185.243 111.385 185.843 111.233 185.326 110.788C185.094 112.015 184.585 111.754 183.513 111.869C182.695 111.957 182.515 111.706 181.734 111.584C180.964 111.464 179.97 111.762 179.219 111.889C178.909 111.942 178.495 112.158 178.179 112.082C177.895 112.014 177.773 111.793 177.603 111.735C177.397 111.666 177.441 111.486 177.085 111.398C176.839 111.339 176.399 111.569 176.154 111.609C174.404 111.893 172.724 111.896 171.054 111.207C171.877 112.652 169.133 111.872 168.644 111.274C168.032 112.232 167.293 111.555 166.06 111.63C164.874 111.702 163.089 112.066 162.608 110.588C162.513 110.888 161.84 111.76 161.572 111.893C160.794 112.279 160.701 111.708 159.978 111.476C158.994 111.16 159.199 111.76 158.588 111.882C157.558 112.088 157.001 111.363 156.09 110.977C156.052 111.576 156.032 111.945 155.514 112.319C155.054 110.647 153.416 112.456 153.697 110.221C153.073 110.627 152.196 110.939 152.019 111.76C153.061 111.473 152.13 112.155 152.086 112.177C151.948 112.249 151.483 111.596 151.375 111.504C151.345 111.812 151.316 112.12 151.287 112.429C150.871 112.221 150.481 111.849 150.144 111.663C149.84 111.495 150.275 111.146 149.762 111.122C149.492 111.108 149.209 111.694 148.926 111.745C148.491 111.82 148.7 111.198 148.518 111.219C148.241 111.25 147.79 111.655 147.581 111.647C146.895 111.622 147.359 111.303 146.836 111.156C145.9 110.894 145.96 111.506 145.287 111.727C143.748 112.232 143.902 109.907 142.337 111.458C141.962 111.829 141.721 112.402 141.208 112.37C140.145 112.303 140.518 111.044 140.734 110.427C140.957 110.537 136.851 112.646 136.883 112.563C136.909 112.058 137.555 111.668 136.978 111.218C136.506 112.231 136.009 112.249 134.921 112.437C134.392 112.529 134.288 112.651 133.721 112.431C133.361 112.292 133.119 111.716 132.76 111.685C132.808 111.689 132.15 112.19 132.05 112.235C131.456 112.503 131.08 112.199 130.503 112.309C130.01 112.403 129.817 112.822 129.327 112.707C128.674 112.554 129.057 111.774 128.158 111.992C127.851 112.066 127.666 112.658 127.182 112.78C126.427 112.972 125.502 112.615 124.704 112.801C124.071 112.949 123.601 113.012 123.047 113.042C122.6 113.067 122.784 112.719 121.961 113.13L121.612 112.25C121.199 112.621 120.787 112.991 120.375 113.362C120.297 113.03 120.247 112.693 120.226 112.352C119.611 112.968 118.837 113.073 118.011 113.129C117.116 113.189 116.449 113.384 115.578 113.547C115.303 113.599 114.594 113.682 114.368 113.585C114.401 113.599 113.944 113.409 114.082 113.445C114.022 113.325 113.967 113.202 113.916 113.077C113.84 112.73 113.59 112.714 113.167 113.031C112.949 112.998 112.525 112.711 112.308 112.782C111.746 112.964 111.822 113.399 111.263 113.335C110.9 113.294 110.714 112.757 110.336 112.721C109.758 112.665 109.256 113.313 108.735 113.454C110.32 113.024 106.679 113.358 107.811 113.387C107.069 113.368 106.298 113.331 105.613 113.664C105.233 113.405 105.694 112.884 105.311 112.669C104.963 112.475 104.937 112.988 104.896 113C105.115 112.938 105.006 113.375 104.787 113.452C104.104 113.694 103.557 113.079 103.522 112.468C102.941 113.342 102.778 112.99 101.925 113.044C101.083 113.098 100.357 113.539 99.5147 113.531C97.849 113.515 96.7188 112.936 96.1629 111.449C97.9376 111.665 99.724 110.524 101.46 110.793C102.03 110.881 102.386 111.31 102.886 111.233C103.501 111.14 103.931 110.468 104.721 110.396C106.462 110.237 108.179 110.392 109.932 110.125C112.026 109.806 114.211 109.617 116.325 109.772C117.959 109.892 119.282 109.268 120.939 109.147C123.081 108.991 125.241 108.964 127.387 108.851C129.592 108.735 131.964 108.384 134.163 108.496C134.85 108.531 135.44 108.599 136.122 108.558C136.41 108.541 136.682 108.345 136.985 108.374C137.379 108.412 137.548 108.815 137.956 108.801C138.65 108.777 139.392 108.206 140.217 108.19C141.573 108.164 142.924 108.168 144.284 108.09C145.481 108.022 146.764 107.743 147.956 107.758C148.796 107.768 149.004 108.484 149.494 108.559C150.375 108.691 154.831 106.155 155.216 108.432C157.537 106.844 160.648 108.188 163.231 107.89C166.548 107.506 169.927 107.848 173.267 107.712C176.666 107.573 180.162 107.701 183.547 108.022C184.95 108.154 186.304 108.279 187.711 108.199C188.338 108.163 189.062 108.003 189.689 108.147C189.841 108.182 191.004 108.994 190.859 109.017C191.494 108.447 191.065 108.363 192.182 108.334C193.043 108.312 193.857 108.498 194.714 108.548C196.251 108.639 197.799 108.426 199.333 108.473C200.613 108.512 201.865 108.701 203.153 108.71C204.54 108.721 206.179 108.76 207.183 109.878C207.077 109.527 206.971 109.176 206.865 108.825C208.414 108.946 209.944 109.499 211.51 109.24C211.114 109.62 210.712 109.93 210.56 110.486C211.405 110.379 211.976 109.789 212.865 109.785C213.612 109.78 213.767 110.155 214.556 109.671C214.653 110.264 214.75 110.857 214.847 111.449C215.939 111.192 215.222 110.379 215.302 109.645C216.189 109.911 216.941 109.605 216.591 110.882C216.321 111.866 215.092 112.351 214.168 112.051ZM212.634 123.013C212.254 124.082 208.961 123.471 208.182 123.358C207.176 123.212 206.025 122.981 205.099 122.867C204.988 122.718 204.854 122.593 204.699 122.489C204.583 122.652 204.435 122.767 204.257 122.834C203.831 122.928 203.83 123.367 203.271 123.27C203.245 123.919 203.697 123.55 204.042 123.786C203.171 124.37 203.57 123.698 203.081 123.708C202.96 123.536 202.791 123.469 202.574 123.506C202.299 123.577 202.045 123.695 201.813 123.86C201.595 124.09 201.408 124.102 201.253 123.896C201.104 123.746 200.923 123.654 200.708 123.619C199.85 123.758 199.61 124.139 198.643 124.077C197.262 123.988 195.768 124.352 194.408 124.16C193.565 124.042 192.157 122.718 191.775 124.008C191.192 123.051 190.264 122.401 189.707 121.423C192.305 121.273 194.902 121.094 197.502 121C199.779 120.918 202.27 121.174 204.397 121.067C206.39 120.966 208.5 120.746 210.535 120.564C212.692 120.372 213.406 120.845 212.634 123.013ZM144.855 123.17C145.799 123.432 146.697 122.84 147.612 123.027C147.915 123.089 148.541 123.639 148.678 123.65C148.93 123.67 149.671 123.129 149.989 123.057C151.998 122.6 154.433 122.648 156.442 122.929C157.506 123.078 157.67 122.591 158.599 122.354C159.565 122.108 160.938 122.298 161.955 122.23C164.347 122.07 166.739 122.184 169.116 122.008C171.555 121.829 173.983 121.732 176.424 121.606C178.087 121.521 182.082 120.572 183.46 121.807C184.597 122.824 183.133 124.591 181.996 124.995C181.146 125.295 180.739 124.661 180.108 124.722C179.389 124.791 179.64 125.639 178.998 124.852C178.601 125.635 176.103 125.301 175.387 125.353C173.827 125.466 172.507 125.779 171.445 124.324C171.517 124.743 171.589 125.163 171.661 125.583C170.253 124.83 168.741 125.071 167.519 125.333C166.914 125.463 165.056 126.361 164.4 125.974C163.949 125.708 164.744 125.252 163.983 125.025C163.584 124.906 162.895 125.568 162.408 125.535C161.059 125.442 161.441 124.535 160.116 125.69C159.667 125.301 159.518 124.641 159.577 124.075C158.615 124.896 158.695 126.265 156.974 126.014C156.333 125.921 156.215 125.267 155.881 125.146C155.168 124.889 155.088 125.351 154.471 125.717C154.238 125.855 153.954 126.077 153.679 126.105C153.116 126.161 153.027 125.903 152.949 125.911C152.575 125.953 152.102 126.143 151.658 126.007C151.258 125.885 151.141 125.18 150.438 125.345C149.765 125.503 149.76 125.96 149.882 126.644C149.218 126.576 148.816 126.206 148.32 125.805C147.819 126.975 146.763 126.006 146.179 126.993C145.419 126.085 144.931 126.335 143.988 125.448C144.034 125.818 144.081 126.188 144.127 126.558C143.391 126.416 143.063 125.897 142.435 126.584C141.825 125.448 139.977 127.066 139.028 125.97C138.604 127.359 135.805 127.027 134.622 127.051C133.574 127.072 132.798 126.986 131.774 127.23C130.87 127.444 129.616 127.668 128.765 127.569C128.209 127.505 127.601 127.403 126.908 127.478C125.91 127.586 125.047 128.104 124.012 127.859C122.455 127.491 121.5 125.445 123.235 124.546C124.422 123.931 126.561 124.159 127.868 124.045C130.033 123.857 132.46 123.463 134.629 123.642C136.32 123.782 137.862 123.378 139.587 123.208C140.887 123.08 143.016 122.849 143.864 124.136C144.189 123.76 144.155 122.977 144.855 123.17ZM121.149 140.796C120.917 139.638 130.817 139 131.8 138.925C133.863 138.766 135.932 138.652 138 138.6C139.7 138.557 141.286 138.881 142.986 138.62C144.575 138.377 146.491 137.877 147.873 139.001C148.077 137.464 154.036 138.213 155.17 138.217C160.105 138.235 164.828 138.246 169.602 137.941C172.33 137.766 175.228 137.531 177.956 137.668C179.187 137.729 180.178 138.057 181.402 137.772C182.201 137.587 183.061 137.201 183.824 137.747C184.718 138.386 185.1 140.557 184.484 141.463C184.036 142.123 183.639 142.05 182.923 141.936C181.822 141.761 181.004 141.506 179.881 141.953C180.063 141.881 179.129 142.089 179.206 142.083C177.934 142.178 176.19 143.066 175.094 142.043C175.533 142.119 176.171 141.336 175.618 141.271C175.202 141.223 174.938 141.668 174.614 141.818C173.504 142.328 172.936 142.169 172.274 141.098C170.937 142.254 170.793 141.934 170.207 140.51C169.755 140.858 169.658 141.681 169.302 141.95C169.249 141.991 169.468 142.49 169.212 142.47C168.973 142.451 168.895 142.06 168.712 142.029C168.595 142.01 168.534 141.667 168.422 141.646C168.301 141.624 168.176 141.842 168.039 141.836C167.672 141.819 166.622 142.6 166.998 141.504C166.442 142.211 166.202 141.76 166.001 141.116C165.359 141.605 164.717 142.093 164.074 142.581C163.776 141.75 163.261 141.977 162.615 142.267C162.809 141.69 162.687 141.144 162.199 141.545C161.915 141.777 161.725 142.514 161.435 142.828C160.263 141.64 159.836 141.966 158.216 142.12C157.597 142.179 156.828 142.293 156.276 141.919C155.79 141.591 155.515 140.386 154.685 141.36C154.87 141.143 154.58 142.806 154.529 143.07C154.162 142.824 153.851 142.52 153.595 142.16C153.117 143.106 151.862 142.257 150.833 142.45C149.214 142.755 147.544 143.268 146.114 142.063C146.013 142.452 144.842 142.947 144.84 142.962C144.909 142.273 145.344 142.516 144.457 142.385C144.293 142.361 144.108 142.655 143.954 142.687C143.425 142.796 142.806 142.692 142.273 142.677C140.055 142.613 138.024 143.105 135.834 143.283C135.095 143.343 134.219 143.461 133.526 143.183C132.812 142.895 132.831 142.57 132.109 142.754C132.337 142.696 131.657 143.411 131.694 143.384C131.597 143.454 131.192 143.106 131.048 143.132C131.006 143.284 130.964 143.436 130.922 143.589C130.747 143.567 130.573 143.546 130.399 143.525C129.923 143.589 129.493 143.106 129.046 143.09C129.128 143.093 127.838 143.573 127.897 143.603C126.996 143.153 127.255 143.284 126.112 143.557C125.032 143.815 123.957 143.755 122.849 143.916C119.626 144.384 121.546 142.769 121.149 140.796ZM118.303 156.91C117.697 156.05 119.309 155.753 119.825 155.677C120.672 155.552 121.795 155.8 122.36 155.666C123.219 155.462 124.049 154.973 125.017 154.841C126.238 154.674 127.469 154.647 128.695 154.543C129.103 154.507 129.609 154.367 130.006 154.39C130.598 154.426 130.844 154.739 131.322 154.741C132.136 154.745 133.14 154.232 133.974 154.137C135.042 154.016 136.121 153.959 137.195 153.906C139.456 153.794 141.694 153.84 143.955 153.838C144.986 153.837 147.731 152.767 148.245 153.966C148.96 153.057 150.793 153.181 151.815 153.155C153.615 153.108 155.396 152.935 157.195 152.851C158.735 152.779 160.456 153.109 161.968 152.878C162.802 152.751 163.078 152.484 164.023 152.605C164.725 152.694 165.796 152.323 166.399 152.487C166.367 152.478 167.151 152.964 166.906 152.979C167.176 152.962 167.16 153.15 167.457 153.066C167.846 152.956 167.667 152.466 168.475 152.292C169.735 152.02 171.416 152.335 172.725 152.265C173.995 152.197 175.263 152.168 176.535 152.174C177.12 152.177 177.844 152.037 178.413 152.151C178.692 152.207 179.285 152.571 179.521 152.535C180.191 152.43 180.533 151.964 181.438 151.993C182.465 152.026 183.389 152.012 184.41 151.933C185.399 151.858 185.558 151.717 186.047 152.539C186.533 153.355 186.667 154.418 185.773 154.972C186.354 154.934 187.068 155.712 186.384 156.142C185.961 156.408 185.113 155.808 184.607 155.851C183.983 155.904 183.494 156.234 182.815 156.254C182.102 156.276 181.377 156.456 180.674 156.47C179.94 156.484 179.386 156.156 178.691 156.296C178.079 156.419 178.015 156.92 177.278 156.48C176.912 156.261 176.85 155.45 176.351 155.442C175.682 155.432 175.948 156.296 175.564 156.697C175.46 155.461 174.506 157.506 174.126 156.006C173.777 156.504 172.482 157.201 171.854 156.801C171.282 156.436 171.472 155.61 171.234 155.015C170.837 156.084 169.773 157.194 169.87 155.247C169.352 155.883 167.956 155.783 168.306 156.896C167.885 156.888 167.785 156.287 167.431 156.241C167.125 156.202 166.882 156.437 166.835 156.434C167.003 156.448 166.334 156.67 166.324 156.673C166.777 156.581 165.018 156.424 165.317 156.426C164.909 156.423 164.41 156.757 163.933 156.756C163.498 156.755 163.066 156.584 162.637 156.535C161.524 156.408 161.756 156.652 161.057 157.002C160.799 157.131 160.734 157.35 160.366 157.323C160.095 157.302 159.994 156.949 159.963 156.946C159.582 156.907 159.864 156.779 159.272 156.839C159.204 156.955 159.136 157.072 159.068 157.189C158.855 157.462 158.577 157.53 158.237 157.394C157.361 157.582 154.456 158.396 154.74 156.888C154.295 157.106 153.85 157.324 153.405 157.541C153.214 156.325 150.796 157.937 150.256 158.019C149.562 158.123 149.498 157.857 148.843 157.715C148.725 157.69 148.488 158.08 148.211 158.023C147.492 157.879 147.364 157.807 147.241 157.027C146.729 157.985 146.303 157.557 145.373 157.714C145.167 157.749 145.036 158.154 144.74 158.084C144.528 158.034 144.522 157.645 144.375 157.595C144.243 157.549 144.263 157.242 144.068 157.199C143.845 157.148 143.085 157.772 142.867 157.868C142.374 158.085 141.566 158.444 141.086 158.337C140.492 158.204 140.756 157.763 139.917 157.813C138.593 157.89 138.04 159.017 137.217 157.242C136.845 157.953 136.892 158.146 136.295 158.381C135.854 158.554 134.736 158.373 134.155 158.351C131.674 158.26 129.235 159.105 126.774 158.884C125.693 158.787 124.781 158.57 123.689 158.747C122.543 158.933 121.421 159.207 120.258 159.317C119.666 159.373 118.43 159.543 118.139 158.787C117.884 158.121 118.837 157.667 118.303 156.91ZM123.169 184.207C119.951 186.36 117.286 189.3 114.33 191.79C111.368 194.286 109.017 197.06 106.353 199.824C103.889 202.379 101.626 204.796 98.6481 206.727C96.7636 207.949 95.0825 209.453 93.1468 210.605C91.6968 211.467 89.5003 212.602 90.2076 209.963C90.9326 207.259 92.2711 204.525 93.4334 201.999C95.086 198.408 96.7509 194.851 98.5387 191.328C99.2108 190.005 99.5867 188.688 100.652 187.633C101.812 186.486 102.624 184.988 103.893 183.903C109.234 179.344 117.283 182.866 123.169 184.207ZM133.264 185.753C131.804 186.519 130.171 186.708 128.624 187.214C127.305 187.645 126.079 188.412 124.661 188.469C125.952 187.499 127.061 186.183 128.516 185.447C130.153 184.62 131.639 185.222 133.264 185.753ZM197.339 192.13C191.97 190.319 186.97 187.649 181.74 185.501C180.837 185.129 173.777 182.804 173.92 181.697C178.868 180.791 183.964 179.235 188.923 180.931C193.435 182.474 197.105 186.175 200.598 189.272C201.51 190.081 207.146 193.761 206.641 194.933C206.292 195.746 203.577 195.524 202.935 195.358C202.106 195.142 201.63 194.639 200.98 194.087C199.893 193.163 198.691 192.587 197.339 192.13ZM187.427 161.861C188.242 161.11 188.73 159.972 189.509 159.279C190.51 158.388 192.126 158.822 193.22 159.285C196.503 160.672 199.31 163.005 202.573 164.452C206.189 166.057 209.32 168.201 212.581 170.41C215.563 172.43 218.787 174.102 221.83 176.029C224.931 177.994 228.403 179.27 231.546 181.165C234.745 183.094 237.932 185.03 241.007 187.155C246.489 190.944 252.197 194.836 256.253 200.223C258.338 202.992 260.289 206.133 261.819 209.243C263.209 212.07 264.718 215.994 262.916 218.934C261.185 221.758 258.235 223.983 255.739 226.09C254.793 226.888 253.894 227.857 252.668 228.203C251.178 228.623 249.438 228.508 247.905 228.632C239.708 229.296 232.072 228.669 223.994 227.203C216.205 225.79 208.384 224.998 200.535 224.016C196.108 223.462 191.681 222.816 187.313 221.893C185.446 221.498 183.546 221.043 181.719 220.506C180.124 220.036 178.782 219.003 177.142 218.593C170.179 216.855 162.214 216.19 155.321 213.266C161.421 210.731 167.902 209.2 174.154 207.093C180.734 204.876 187.16 203.016 194.095 202.386C197.663 202.062 200.857 201.151 204.29 200.197C207.561 199.288 210.977 199.009 214.337 198.602C215.831 198.421 220.095 198.692 220.591 196.739C221.328 193.831 217.138 193.495 215.352 193.755C212.818 194.125 210.728 194.758 208.789 192.679C206.809 190.556 204.885 188.382 202.869 186.286C199.131 182.4 195.278 177.905 189.994 176.161C183.548 174.034 176.073 176.053 169.64 177.263C162.847 178.541 156.064 179.764 149.398 181.621C146.637 182.39 143.077 184.084 140.212 183.812C137.388 183.543 134.19 183.081 131.461 182.267C130.226 181.899 129.212 181.216 128.107 180.58C126.67 179.751 125.096 179.221 123.572 178.577C120.489 177.276 117.483 176.077 114.157 175.566C111.356 175.135 108.382 174.88 105.667 175.862C103.004 176.825 100.645 178.786 98.7865 180.882C96.7682 183.158 95.1001 185.709 93.4461 188.253C92.6519 189.473 91.6827 190.539 90.8599 191.732C90.1695 192.734 89.7664 193.848 89.0358 194.822C87.4005 197.001 86.29 199.789 85.2993 202.324C84.198 205.139 82.975 208.488 83.2379 211.551C83.3371 212.709 83.4409 214.243 83.8888 215.316C84.4585 216.682 85.2707 216.647 86.4415 217.162C88.453 218.047 89.0171 220.492 91.6167 220.016C94.055 219.568 96.1696 217.559 97.9486 215.957C100.267 213.871 102.486 211.67 104.705 209.478C106.982 207.227 109.225 204.732 111.036 202.084C111.749 201.042 112.305 199.865 113.148 198.917C114.221 197.708 115.425 197.563 116.883 197.081C129.624 192.871 142.427 188.81 155.567 186.031C158.715 185.365 161.888 184.506 164.981 183.619C168.26 182.679 169.959 183.673 172.666 185.462C178.321 189.201 185.005 191.835 191.302 194.274C193.285 195.042 196.441 195.091 197.991 196.606C188.804 198.006 180.048 200.701 171.187 203.385C166.818 204.707 162.399 205.854 158.013 207.119C153.626 208.385 149.406 210.025 145.079 211.452C140.772 212.872 136.221 213.451 131.873 214.761C127.435 216.098 123.015 217.018 118.459 217.83C113.859 218.651 109.29 219.598 104.674 220.333C102.561 220.67 100.448 221.019 98.3576 221.481C96.3126 221.935 94.3366 223.019 92.2813 223.271C83.1024 224.394 74.1035 226.896 64.9602 228.31C58.1335 229.367 46.2565 230.84 41.8295 223.99C37.3779 217.102 42.8394 209.068 47.7125 204.143C50.7409 201.082 54.1439 198.388 57.7141 195.991C61.5354 193.426 65.2119 190.657 69.0338 188.096C77.6829 182.3 87.0616 177.573 96.3539 172.916C100.814 170.681 105.123 168.284 109.462 165.83C111.615 164.613 112.807 166.577 114.509 167.913C115.848 168.963 118.307 171.552 120.18 170.355C120.252 170.786 120.324 171.217 120.396 171.649C120.945 171.399 121.494 171.149 122.042 170.899C122.411 171.865 122.368 172.465 123.398 172.973C124.03 173.285 125.379 173.66 125.982 173.111C126.105 173.493 126.228 173.874 126.351 174.256C126.878 174.216 126.979 172.708 127.079 172.355C127.982 173.674 129.231 174.776 130.818 175.149C130.826 175.063 130.56 173.979 130.572 173.973C131.074 173.665 131.707 174.982 131.974 175.264C132.856 176.198 133.383 176.053 134.358 175.299C134.429 175.376 134.759 176.237 134.807 176.222C135.018 176.155 135.419 175.392 135.463 175.322C135.402 176.326 137.34 176.528 138.024 176.313C137.871 176.018 137.717 175.724 137.564 175.43C139.948 175.112 140.884 177.645 143.173 177.516C144.864 177.421 143.507 177.051 144.465 176.327C145.301 175.693 145.45 177.078 145.532 177.034C145.692 176.867 145.816 176.675 145.903 176.458C146.213 177.644 148.677 178.708 148.423 176.758C149.392 177.146 150.08 177.79 151.153 177.926C152.458 178.091 153.85 177.814 155.152 177.706C157.955 177.473 160.597 176.901 163.124 175.616C164.623 174.855 166.217 174.164 167.626 173.246C168.804 172.477 171.04 170.143 172.61 171.148C172.208 169.962 174.1 171.061 174.16 169.534C174.464 169.763 174.768 169.992 175.072 170.221C175.254 169.821 175.203 169.192 175.447 168.843C175.782 168.365 175.946 168.647 176.231 168.378C176.551 168.077 176.83 167.271 177.214 167.041C177.609 166.805 178.074 167.087 178.499 166.88C179.146 166.566 181.93 163.496 181.459 166.126C182.656 165.72 181.733 165.348 181.882 164.55C182.182 162.951 182.913 164.102 183.642 164.241C184.834 164.47 184.81 163.484 185.475 162.768C186.082 162.113 187.223 161.821 186.83 160.684C187.279 160.926 187.374 161.4 187.427 161.861ZM115.556 127.718C114.617 128.765 113.914 128.317 112.87 128.164C112.758 127.789 112.567 127.738 112.297 128.008C111.987 128.186 111.655 128.303 111.298 128.359C110.442 128.57 109.553 128.48 108.715 128.8C108.739 128.52 109.034 128.021 108.845 127.736C107.964 128.345 107.418 128.733 106.336 128.744C105.46 128.754 103.921 128.084 103.193 128.885C103.171 128.573 103.148 128.262 103.126 127.95C102.77 128.128 102.459 128.365 102.196 128.663C102.146 128.201 102.118 127.852 101.813 127.479C101.234 128.67 100.599 128.698 99.4744 128.243C99.6322 128.307 98.3485 127.554 98.3975 127.763C97.9916 126.053 104.398 126.194 105.071 126.127C106.751 125.957 108.43 125.858 110.113 125.703C111.708 125.557 112.899 125.308 114.003 126.639C113.511 124.716 118.166 124.812 115.556 127.718ZM42.0989 97.9015C42.2753 100.808 42.9223 103.898 41.7921 106.695C40.8836 108.944 39.0711 111.484 37.1185 112.951C33.1204 115.956 29.7319 112.279 29.1753 108.238C28.5954 104.024 29.745 98.8739 33.3742 96.2754C35.5428 94.7226 37.6426 94.8303 40.1392 95.3407C40.7255 95.4607 41.6774 95.4145 42.0127 95.9972C42.0914 96.1335 42.0209 97.8987 42.0989 97.9015ZM95.1982 136.629C94.5075 136.978 93.785 137.182 93.1761 137.656C92.9647 137.821 92.8927 138.196 92.6682 138.335C92.2598 138.587 91.676 138.42 91.2503 138.628C90.5458 138.972 90.0407 139.465 89.2034 139.782C87.9599 140.254 86.8696 140.9 85.6942 141.513C83.736 142.534 81.6341 143.41 79.5868 144.242C78.5534 144.661 75.6954 145.479 75.7942 146.992C75.563 147.054 75.3269 146.549 74.844 146.589C74.1815 146.644 73.3061 147.41 72.6182 147.599C71.3313 147.951 70.3352 147.982 70.3352 149.623C69.9258 149.345 69.8216 148.663 69.2767 148.573C68.6632 148.472 68.4052 149.134 67.9146 149.339C67.3368 149.582 66.6181 149.349 66.0459 149.607C65.7957 149.872 65.5176 150.103 65.2115 150.3C64.9002 150.336 64.5903 150.327 64.2822 150.271C63.0672 150.529 61.9494 150.986 60.7317 151.223C59.545 151.455 58.7321 151.539 59.2312 152.943C57.9616 153.191 57.6517 151.844 56.2193 152.337C54.4637 152.94 52.8227 153.376 50.9901 153.744C50.0555 153.932 49.0788 154.351 48.1374 154.449C47.4657 154.519 46.8389 154.279 46.1774 154.354C45.3804 154.443 44.7398 154.812 43.9149 154.826C43.1324 154.84 42.311 154.699 41.5426 154.561C41.6513 154.871 41.7872 155.168 41.9503 155.452C41.4191 155.341 41.1737 154.702 40.7233 154.607C40.2507 154.508 39.8272 154.996 39.4336 154.888C39.2659 154.841 39.3775 154.325 39.0778 154.226C38.8043 154.137 38.6892 154.242 38.4181 154.2C38.3278 154.186 37.1944 154.124 37.0137 154.22C36.6981 154.387 37.0175 154.701 36.9547 154.747C35.8888 155.536 35.8757 155.11 35.4006 154.286C34.7028 153.077 33.8613 153.84 32.5931 153.628C31.1795 153.393 30.0658 154.016 28.6748 153.927C27.1743 153.832 25.4109 152.709 24.0841 152.053C21.2194 150.637 18.4257 149.297 16.0199 147.153C11.3166 142.961 7.4904 137.805 5.23444 131.903C2.81051 125.562 2.35119 118.95 2.54575 112.223C2.66279 108.177 2.98661 104.134 3.62428 100.136C4.06326 97.3854 4.15521 92.4979 7.25603 91.2456C7.78901 97.6851 6.10695 104.247 7.16779 110.645C7.48723 112.572 8.26622 115.14 9.74057 116.567C11.9233 118.68 12.4341 115.626 12.6314 113.939C12.9988 110.806 13.6814 107.69 14.165 104.572C14.6479 101.455 14.9892 98.3028 15.6605 95.2186C15.9055 94.094 17.88 85.8589 19.3293 86.249C19.036 92.2399 18.2573 98.1277 18.2266 104.141C18.2146 106.552 17.9986 109.1 18.3466 111.496C18.5259 112.729 19.6487 116.346 21.5798 116.045C23.3669 115.766 21.4023 113.217 21.2353 112.234C20.7934 109.633 21.3567 106.397 21.7686 103.815C22.5487 98.9283 24.2885 93.9239 27.132 89.8404C29.679 86.184 33.6005 82.703 38.3249 83.3479C40.3432 83.6236 41.9181 84.1248 42.9322 85.968C43.7282 87.4145 46.8629 89.0582 45.0461 90.8693C43.3925 92.518 40.7177 91.1983 38.8794 90.8051C36.6286 90.324 34.2164 90.9028 32.334 92.2219C29.1044 94.484 27.264 98.5291 26.6632 102.323C25.8535 107.438 28.0179 120.826 35.9897 117.826C41.2856 115.832 45.2745 108.661 44.8298 103.171C44.6515 100.974 43.7924 96.8016 46.8329 96.2083C50.7282 95.4483 51.2785 99.7422 50.8839 102.533C50.3107 106.592 48.1653 110.366 45.7111 113.575C43.5722 116.372 41.0844 118.121 38.5106 120.431C37.7485 121.115 35.8047 122.652 36.1312 123.924C36.4892 125.318 39.5437 125.715 40.7668 125.944C46.8177 127.076 53.6413 126.034 59.6819 125.244C72.0972 123.618 84.3491 119.614 94.5294 112.252C94.9406 116.807 95.4591 121.347 95.65 125.918C95.7425 128.137 95.7662 130.389 96.0199 132.596C96.1763 133.953 96.7407 135.85 95.1982 136.629ZM60.773 152.501C60.2855 152.756 60.8125 151.214 60.677 151.724C61.4051 151.985 61.4373 152.244 60.773 152.501ZM112.275 97.3756C113.049 96.5228 115.162 94.4943 115.833 96.4194C116.083 95.5987 116.115 94.3831 117.079 95.4914C117.463 94.13 121.695 94.2574 122.743 94.1974C126.1 94.0054 129.47 93.9027 132.815 93.5692C139.688 92.884 146.681 93.2377 153.58 93.2151C155.074 93.2102 156.563 93.1293 158.046 93.3461C159.477 93.555 160.981 94.1417 162.44 93.9274C163.736 93.7368 164.587 93.3793 165.921 93.5321C167.518 93.7153 169.069 93.8455 170.68 93.8395C177.807 93.8134 184.931 94.1021 192.06 94.1134C193.449 94.1155 195.113 93.8441 196.417 94.4343C196.9 94.6531 197.428 95.3809 197.796 95.4607C198.219 95.5521 197.968 94.8928 198.534 95.1907C199.292 95.5892 198.705 96.815 198.204 97.0092C198.504 96.8931 197.663 96.7783 197.747 96.7737C197.348 96.7953 197.007 97.1013 196.579 97.0822C195.926 97.0536 195.38 96.6555 194.854 96.305C194.844 96.4483 195.134 97.4024 194.804 97.4504C194.52 97.492 194.254 96.5514 194.225 96.3325C192.63 97.7391 190.941 96.9552 188.962 97.1331C187.558 97.2598 184.631 98.1959 183.652 96.7307C183.612 97.0424 183.486 97.3152 183.277 97.5492C182.997 97.9753 182.756 97.9392 182.551 97.4394C182.482 97.4426 181.8 97.5909 181.787 97.5898C181.307 97.5517 180.685 97.3794 180.197 97.3378C179.441 97.2732 179.58 97.8231 178.979 97.8319C178.65 97.8365 177.812 97.3621 177.239 97.3325C176.246 97.2806 175.233 97.7017 174.253 97.5743C173.579 97.4867 172.97 96.9379 172.309 96.9167C171.484 96.8892 171.217 97.5178 170.564 96.635C170.43 96.5987 170.347 97.1179 170.295 97.1271C170.307 97.1246 169.673 97.2185 169.598 97.2478C169.468 97.2975 168.961 97.5298 168.806 97.5323C168.473 97.5386 168.292 97.3 167.939 97.2944C167.354 97.2845 165.488 97.7991 165.54 96.7176C163.454 97.4906 161.674 97.1895 159.533 97.372C158.551 97.4564 157.934 97.3247 156.999 97.1444C155.829 96.9185 155.052 97.2022 153.884 97.2598C152.763 97.3148 152.409 96.8401 151.462 96.4116C151.089 96.2425 150.842 96.0198 150.384 96.1137C150.122 96.1673 150.308 96.6071 150.231 96.6371C149.829 96.7924 149.548 96.628 148.996 96.6657C147.977 96.7349 147.572 97.5863 146.525 96.7872C146.873 96.7452 147.221 96.7021 147.569 96.6601C146.568 96.2355 145.246 96.0191 145.489 97.5647C144.635 97.4447 145.374 96.8634 144.954 96.6551C144.534 96.4476 144.064 96.7953 143.536 96.9672C142.139 97.42 140.975 97.1952 139.52 97.114C137.865 97.0215 133.996 98.3713 132.811 96.6191C132.775 96.9883 132.379 98.0169 131.851 97.9685C131.68 97.9527 132.159 96.8606 132.213 96.7452C131.941 97.3237 130.702 97.4334 130.09 97.7335C130.159 97.4225 130.227 97.1119 130.296 96.8013C129.729 97.4052 129.453 97.0367 128.786 97.2386C128.494 97.3268 128.071 97.9286 127.822 97.965C127.531 97.6279 127.165 97.4828 126.726 97.5298C126.433 97.4567 126.14 97.4423 125.847 97.4871C124.676 97.5722 123.608 98.223 122.442 97.7797C121.434 97.3953 121.044 96.407 120.442 97.9795C120.284 97.6999 120.126 97.4204 119.967 97.1408C119.772 97.4444 119.577 97.7476 119.381 98.0508C118.618 97.551 118.571 97.2615 117.693 97.4451C117.487 97.5273 117.276 97.5157 117.059 97.4105C117.007 97.5647 116.956 97.7183 116.904 97.8722C116.883 98.259 116.768 98.3872 116.559 98.2555C116.384 98.1923 116.225 98.0967 116.084 97.9678C115.503 98.0123 114.76 98.1651 114.137 98.0808C113.896 98.0487 112.387 97.252 112.275 97.3756ZM130.057 86.969C130.125 87.0742 130.194 87.179 130.262 87.2842C129.319 87.7822 129.097 87.4963 128.999 86.496C129.46 86.5049 129.539 87.3156 130.057 86.969ZM130.641 86.382C131.095 86.5825 131.616 86.9761 132.044 86.4487C132.332 87.286 130.193 88.4285 130.641 86.382ZM133.575 86.7519C134.529 87.3965 132.241 86.8783 132.245 86.8794C132.656 86.4996 133.099 86.4572 133.575 86.7519ZM141.778 83.1573C142.105 84.8078 143.007 84.7608 144.463 83.9935C146.587 82.8746 146.945 81.0423 147.093 78.8543C147.236 76.7563 147.492 75.9441 149.655 76.3821C151.165 76.6878 152.443 76.4308 153.965 76.3888C155.59 76.344 156.162 76.5921 156.293 78.2638C156.424 79.9376 156.722 81.2086 157.936 82.4824C159.171 83.7775 160.818 84.5508 162.423 85.2755C163.248 85.6475 164.023 86.0481 164.936 86.129C165.289 86.1604 167.131 85.9274 167.169 86.5101C167.198 86.9482 164.648 88.1836 164.378 88.3308C163.195 88.9739 162.016 89.551 160.724 89.9407C157.752 90.8372 154.601 90.8901 151.522 90.8358C146.559 90.7486 139.699 88.6491 136.732 84.2459C138.414 83.883 140.096 83.5202 141.778 83.1573ZM141.333 68.8657C140.548 68.2067 140.039 67.211 139.387 66.4305C139.058 66.037 138.817 65.9117 138.503 65.7147C138.174 65.5072 137.988 65.8008 137.713 65.313C137.002 64.0529 139.195 62.2796 136.869 61.7947C136.082 61.6302 134.188 62.2539 133.959 61.1261C133.634 59.5318 136.677 59.4277 137.393 58.6183C138.817 57.0095 137.85 54.2821 138.717 52.4262C139.538 50.6681 141.657 50.3557 143.329 49.8273C145.66 49.0917 148.018 48.665 150.384 48.0762C152.038 47.6647 154.787 46.0114 156.321 47.4723C153.953 47.9979 155.329 48.8231 156.908 49.2887C158.695 49.8167 160.589 50.0225 162.441 50.1697C164.348 50.3208 166.291 50.3497 168.175 49.9695C169.917 49.618 171.862 48.1038 173.689 48.4917C172.676 50.254 169.656 51.2166 167.822 51.6783C166.887 51.9133 166.288 51.8399 166.414 53.0054C166.535 54.1349 167.517 55.2676 167.739 56.4444C168.033 58.0017 167.776 59.433 167.222 60.8974C166.677 62.3386 166.55 62.5267 167.026 63.9036C167.769 66.0476 166.173 68.4174 164.698 69.9743C158.732 76.2699 147.315 73.8852 141.333 68.8657ZM156.492 31.24C156.516 31.3043 156.495 31.2799 156.492 31.24V31.24ZM158.35 47.1278C158.102 47.3124 156.678 47.7 156.737 47.1433C156.817 46.3972 158.101 46.6668 158.35 47.1278ZM161.597 32.0582C161.262 31.809 160.326 31.9114 161.011 30.9668C161.234 31.3823 161.415 31.7201 161.597 32.0582ZM139.128 26.0874C139.554 24.9805 140.026 23.9505 140.218 22.772C140.336 22.0459 140.101 21.2168 141.116 21.1028C139.822 20.5388 139.809 18.3122 139.732 17.158C139.628 15.5686 139.125 13.4404 139.824 11.961C140.541 10.4413 141.509 10.4664 141.801 12.2763C141.915 12.985 141.478 13.2142 141.395 13.7077C141.233 14.684 141.556 14.4699 142.186 13.7262C142.446 14.4821 142.546 15.6181 143.604 15.5701C143.533 15.3656 143.128 14.9146 143.264 14.6607C143.471 14.2707 144.488 14.8666 144.617 14.9568C145.545 15.6059 145.746 16.1985 145.084 17.0172C146 17.116 145.231 17.9183 145.823 18.1273C146.725 18.4464 146.12 16.935 146.022 16.6692C146.572 16.8834 146.756 17.1284 147.104 17.5622C147.308 17.8615 147.494 18.1725 147.662 18.494C147.849 19.0814 148.233 19.2282 148.816 18.9356C149.985 19.3023 151.599 19.2448 152.647 19.8861C153.125 20.1787 153.298 20.8194 153.698 21.0626C154.148 21.3365 154.751 21.2122 155.234 21.3841C155.057 21.7858 155.2 22.0032 155.662 22.0371C156.022 22.0699 156.37 22.1508 156.706 22.2796C156.957 22.0901 157.231 21.94 157.527 21.8313C157.725 22.1811 158.006 22.2676 158.369 22.0915C159.447 22.2934 159.965 22.701 160.65 23.3106C161.265 23.8577 160.764 23.9022 161.438 23.8535C161.709 23.8341 162.183 23.3749 162.802 23.4645C163.159 23.5337 163.502 23.6438 163.833 23.7938C164.191 24.0999 164.571 24.1383 164.973 23.9096C165.625 24.2283 165.69 24.7938 166.486 24.8711C167.366 24.9569 167.083 23.8595 167.687 25.4069C168.501 23.7663 168.799 26.38 169.639 26.5911C170.51 26.8099 170.604 26.104 171.349 26.8752C171.572 27.1064 171.56 27.4883 171.811 27.7333C172.221 28.1343 172.777 28.0541 173.134 28.6012C172.935 28.2959 173.181 29.6834 173.177 29.6376C173.232 30.2496 172.688 30.9354 173.803 30.8832C173.791 30.9474 173.255 31.7278 173.151 31.6396C173.125 31.5506 173.103 31.4603 173.087 31.3689C172.967 31.4204 172.914 32.1637 172.936 32.2951C173.03 32.3099 173.069 32.2396 173.052 32.0843C172.869 32.6575 173.145 33.0218 172.793 33.5661C172.568 33.9138 171.951 34.1753 171.624 34.3899C170.834 34.9081 170.06 35.428 169.289 35.9797C167.491 37.2659 165.478 38.8172 163.214 39.0854C164.351 37.969 170.893 33.744 167.612 32.5312C167.003 32.3063 165.895 32.0935 165.259 32.0462C164.467 31.9876 163.649 32.4408 162.776 32.1577C161.722 31.8171 162.119 30.8267 161.476 30.4713C160.109 29.7177 160.432 31.4903 160.002 31.9544C159.55 31.4804 159.646 31.2496 158.933 31.2069C158.209 31.1631 158.036 31.8327 157.191 31.4155C156.027 30.8408 156.643 29.6958 154.991 29.669C155.018 29.4177 155.258 28.7153 154.943 28.5194C154.518 29.0703 154.847 29.6866 154.452 30.2171C154.255 30.4833 153.826 30.6954 153.514 30.7815C152.781 30.9827 152.677 31.3678 152.797 30.2651C152.254 31.2429 150.589 30.8408 149.599 30.7424C147.99 30.5825 146.279 30.2778 144.736 29.7618C143.309 29.2842 142.547 28.4639 141.37 27.7174C140.925 27.435 140.713 27.5431 140.075 27.3676C139.445 27.1947 138.831 26.8594 139.128 26.0874ZM142.524 8.77481C142.767 8.6284 142.941 10.8128 142.647 11.2209C142.108 10.3681 141.152 9.11712 142.524 8.77481ZM143.3 7.90348C144.081 7.19631 143.539 9.02284 143.395 9.32929C143.106 9.14374 142.816 8.95815 142.527 8.77259C142.896 8.54599 142.988 8.18554 143.3 7.90348ZM172.78 4.9598C179.999 6.47474 187.152 9.30638 192.942 13.9664C198.216 18.2109 201.938 24.2333 204.025 30.6393C206.191 37.2885 205.463 44.6655 200.309 49.7546C197.594 52.435 194.009 54.0523 190.593 55.6304C188.956 56.3865 187.269 57.0162 185.626 57.755C184.446 58.2855 183.005 59.134 181.658 58.9872C182.345 58.2639 183.342 58.2491 184.174 57.8072C185.178 57.2724 185.999 56.2467 186.865 55.514C187.725 54.7865 189.633 52.4957 190.954 53.0502C190.771 51.8297 192.161 51.2632 192.788 50.4584C193.45 49.607 193.498 48.6113 194.719 48.3328C193.408 47.3064 193.809 45.3711 194.094 43.974C194.459 42.1873 194.628 40.5471 194.772 38.7289C195.032 35.4513 195.241 31.2757 193.429 28.3944C192.842 27.4587 192.093 26.5989 191.569 25.6268C190.937 24.4556 191.077 23.425 191.077 22.1409C189.921 22.9174 189.678 21.3344 189.19 20.5628C188.823 19.9839 188.342 19.6606 188.224 18.9321C188.138 18.4023 188.713 18.3126 188.398 17.757C188.011 18.0489 187.857 18.5014 187.661 18.9215C187.304 18.7789 187.725 18.2819 187.521 18.1206C187.515 18.116 186.826 17.817 186.86 17.8601C186.417 17.2985 186.275 16.3667 186.058 15.6983C185.246 16.1094 185.398 16.061 184.493 15.3741C184.333 15.2533 183.536 14.698 183.461 14.5165C183.111 13.6678 183.725 14.1705 183.553 13.6437C183.06 12.1307 180.294 12.4168 180.075 10.1496C178.726 11.0061 178.211 9.79249 177.414 8.92931C176.596 8.04509 175.225 7.70497 175.299 6.30245C174.874 6.44773 174.449 6.59263 174.025 6.73717C174.246 5.44298 172.323 5.5254 171.627 4.86888C172.013 4.87368 172.398 4.904 172.78 4.9598ZM173.879 85.1184C174.548 84.5201 174.345 85.3164 174.776 85.2254C175.144 85.1473 175.217 84.8692 175.57 84.7838C177.024 84.4322 179.199 84.8738 180.728 84.7979C182.5 84.7104 185.537 85.0782 186.381 87.1511C186.89 88.3992 186.113 87.9746 185.258 87.8818C184.595 87.8101 184.006 87.9443 183.35 87.9376C183.025 87.9877 182.702 87.9827 182.38 87.9224C182.223 87.819 182.13 87.6732 182.102 87.4854C181.189 87.3474 180.219 87.8874 179.208 87.9143C177.859 87.9503 176.66 87.6915 175.635 86.7805C175.227 87.388 174.95 87.6894 174.217 87.7572C174.198 87.759 173.481 87.4709 173.371 87.442C173.224 87.4039 172.853 87.7117 172.57 87.6238C173.072 86.8246 173.145 85.7746 173.879 85.1184ZM266.027 92.332C266.265 91.5036 266.464 90.6642 266.681 89.8305C270.011 93.6217 272.926 98.6971 274.237 103.559C275.089 106.719 276.415 112.444 272.354 114.073C269.045 115.401 267.201 110.643 266.363 108.299C264.516 103.125 264.516 97.5962 266.027 92.332ZM117.026 32.9255C117.069 32.9166 114.87 34.1954 115.594 33.1602C115.885 32.7437 116.989 32.4511 117.479 32.4511L117.026 32.9255ZM114.911 33.4673C114.657 33.6812 114.4 33.8926 114.141 34.1012C113.892 33.708 113.642 33.3144 113.393 32.9212C113.884 32.7144 115.968 32.5591 114.911 33.4673ZM113.361 73.2245C112.901 72.9128 112.537 73.0783 112.398 73.6014C112.398 73.0812 112.669 71.8719 113.086 71.7311C113.355 71.6396 112.191 70.2627 112.518 69.9023C113.35 70.3788 112.852 70.8352 113.096 71.4504C113.206 71.7279 113.536 71.9905 113.609 72.2037C113.731 72.5658 114.228 73.8104 113.361 73.2245ZM111.108 70.1258C110.636 70.2465 111.461 71.0241 111.461 71.3679C111.46 71.628 111.148 71.8274 111.019 72.1832C110.74 72.9537 111.22 73.4744 110.429 74.0624C110.429 72.3738 109.296 67.8992 111.474 67.0765C110.411 66.2399 111.284 65.2742 112.117 66.2756C112.917 67.2381 112.407 69.7933 111.108 70.1258ZM109.973 63.4621C109.545 61.9443 108.257 61.4135 106.784 61.5035C106.84 60.7262 107.429 59.6059 107.854 61.0065C108.029 60.5925 108.15 60.0524 108.549 59.7782C109.221 61.8836 112.569 63.047 110.485 65.3286C110.314 64.7066 110.149 64.0833 109.973 63.4621ZM106.082 61.6164C98.3283 62.1787 87.4428 63.7875 81.238 57.8442C77.1923 53.969 77.4083 47.9343 80.6779 43.6288C82.5436 41.1718 85.0907 39.4419 87.6486 37.7939C88.6355 37.1575 89.4717 36.7379 90.5553 36.3722C90.7307 36.3531 90.8959 36.3923 91.0502 36.4897C91.1112 36.2278 91.2584 36.0344 91.4931 35.9077C91.9118 35.6839 92.5079 35.6038 92.749 35.1389C92.4917 36.0122 92.3593 36.9112 92.2651 37.8144C92.0561 37.5712 91.8475 37.328 91.6389 37.0848C91.4645 38.7304 89.7502 37.7343 88.7266 37.9397C89.4007 38.873 89.8829 39.2118 89.9411 40.4451C89.4389 39.5178 88.3888 38.9082 87.4125 38.6096C87.9426 40.1779 88.3175 41.1087 87.7838 42.8283C87.1389 42.4602 87.0955 41.576 86.3133 41.3642C86.1069 42.3896 86.0705 43.5275 85.8061 44.5225C83.8034 43.6091 83.9986 46.0693 84.803 47.2866C85.2304 47.9343 85.4405 48.684 85.822 49.3056C86.7581 50.8308 86.0469 48.5503 87.0874 48.6583C86.8537 50.2667 86.7722 50.427 87.9493 51.6048C89.0983 52.7534 89.6941 54.347 90.9227 55.4261C91.2785 54.9715 90.7191 54.4956 90.67 54.0604C91.8133 54.2521 92.3487 55.3985 93.4479 54.3831C93.9272 55.3174 94.4461 56.3463 95.5939 56.5379C94.835 55.0953 97.0513 56.0738 97.6196 56.2785C98.0506 56.4338 98.8229 56.5573 98.9891 56.617C99.9255 56.9551 99.2835 56.3484 99.8518 57.457C100.686 57.205 101.001 56.5129 101.999 57.0977C102.811 57.5735 102.812 58.3882 102.998 59.2229C103.192 58.6769 103.387 58.1312 103.601 57.5926C103.818 57.6844 104.732 58.69 104.632 58.6945C106.771 58.5897 106.695 59.9176 106.082 61.6164ZM95.1954 34.3959C95.625 34.0945 96.1491 34.4958 96.6313 34.3878C97.2991 34.2388 97.6782 33.667 98.424 33.6056C98.2165 34.2688 97.8271 34.2067 97.4975 34.7274C97.3852 34.9049 97.4438 35.3306 97.3439 35.4329C96.5081 36.2889 96.2194 35.5904 95.3662 34.9423C95.4404 35.7238 95.5907 35.9705 94.8544 36.1802C94.188 36.3704 93.0878 35.6705 92.7518 35.1336C93.0353 34.5668 94.6815 34.7566 95.1954 34.3959ZM100.516 33.1743C101.24 33.2435 100.367 35.3796 99.3301 33.3077C99.7208 33.2226 100.116 33.1782 100.516 33.1743ZM104.238 32.7617C105.38 32.5287 109.189 31.4433 109.613 33.2205C109.689 33.1764 109.972 32.1729 110.104 32.2954C110.631 32.786 110.69 33.4362 110.65 34.1174C110.012 32.7896 110.239 33.9561 109.807 33.8651C109.694 33.8411 109.522 34.0518 109.236 33.9649C108.862 33.8506 108.593 33.0539 108.357 32.7843C107.963 33.3458 107.476 34.0694 106.687 34.0207C106.129 33.9861 105.23 32.5499 105.953 34.1224C105.529 33.9822 105.038 33.6649 104.565 33.7285C104.036 33.8001 103.761 34.3221 103.265 34.4065C102.165 34.5929 102 33.535 101.286 32.9604C102.27 32.9032 103.266 32.9597 104.238 32.7617ZM111.146 32.7444C111.227 32.3801 112.226 32.2329 112.481 32.3487C113.101 32.6307 112.872 33.0031 112.758 33.6226C112.297 33.4044 111.836 33.1866 111.375 32.9685C112.063 34.0761 110.817 34.2367 111.146 32.7444ZM304.551 97.6184C304.47 94.9644 304.392 92.2642 303.719 89.6802C303.249 87.8719 302.092 84.6292 299.904 84.3154C296.604 83.8417 294.777 90.3635 293.852 92.602C293.667 89.9664 293.829 87.161 292.833 84.6595C292.036 82.6547 290.023 80.7561 288.288 83.0073C286.745 85.0111 286.448 87.9686 286.042 90.3794C285.516 93.5031 285.2 96.6509 284.815 99.7934C283.308 96.8807 283.045 93.5466 281.853 90.5195C280.729 87.6629 278.961 84.9349 277.256 82.3942C275.865 80.3188 274.172 78.3675 271.993 77.099C270.095 75.9949 266.777 74.8005 264.969 76.6341C263.46 78.1642 263.696 80.2118 263.774 82.1429C263.81 83.0027 263.945 83.5922 263.188 84.0256C262.817 84.2385 262.236 84.1283 261.827 84.242C261.17 84.4259 260.665 84.7372 260.109 85.1509C256.206 88.0512 254.407 93.278 253.851 97.9378C253.146 103.842 255.448 108.904 257.428 114.306C257.744 115.167 258.746 116.994 258.608 117.955C258.456 119.008 257.134 119.035 256.242 119.057C253.549 119.124 250.733 118.923 248.053 118.672C241.671 118.075 235.294 115.003 229.58 112.26C228.538 111.759 227.063 111.473 226.212 110.685C225.412 109.944 225.201 108.756 224.511 107.906C222.816 105.821 221.736 104.042 219.241 102.782C216.7 101.499 214.107 100.313 211.627 98.9085C208.562 97.1701 205.729 94.9683 202.791 93.022C197.33 89.4059 191.907 85.4417 186.118 82.3667C183.428 80.9375 180.422 80.7063 177.629 79.5362C174.909 78.3968 171.571 78.3954 168.732 79.1148C167.35 79.4656 166.409 80.2965 165.137 80.839C163.647 81.4747 162.432 80.773 161.121 80.0141C159.117 78.855 157.131 76.9659 159.984 75.7154C160.952 75.2907 162.165 75.1301 163.01 74.463C163.911 73.7521 164.635 72.4405 165.367 71.55C166.996 69.5702 167.97 67.2914 170.354 66.0603C172.991 64.6989 176.116 64.3283 178.927 63.4384C181.974 62.4748 184.956 61.3287 187.945 60.2035C193.331 58.1764 198.93 55.9876 202.801 51.5247C206.139 47.6749 207.594 42.7051 207.459 37.6577C207.184 27.3394 201.656 16.8672 193.726 10.4158C184.001 2.50484 171.629 -0.133131 159.346 0.00512604C153.581 0.0702133 146.701 0.824681 141.891 4.32732C137.736 7.35267 137.045 12.6442 137.663 17.4206C137.913 19.3591 138.771 21.9175 137.404 23.6255C136.638 24.5813 135.265 24.8178 134.234 25.4136C132.939 26.1622 131.797 26.8798 130.33 27.2755C124.099 28.9585 117.536 28.3725 111.165 28.2793C100.552 28.124 89.6732 30.9975 81.7562 38.4759C75.3625 44.5144 73.4452 55.9015 81.243 61.7883C87.5431 66.5442 97.4248 66.0211 104.853 65.1916C107.157 64.934 108.741 64.5598 108.746 67.3783C108.752 70.4568 108.242 73.6745 109.028 76.6966C110.265 81.4567 114.838 81.57 118.882 80.545C121.016 80.0043 123.078 79.191 125.104 78.3393C128.076 77.0902 130.801 75.2533 133.736 74.0063C135.725 73.1613 137.215 75.8943 138.98 73.9996C139.306 73.6494 139.366 73.1277 139.858 72.9484C140.629 72.6678 141.922 73.6519 142.598 73.9632C143.611 74.4291 144.631 74.7719 145.035 75.8943C145.414 76.944 145.248 78.6136 144.885 79.6492C144.098 81.9007 141.977 81.4557 140.041 81.3049C136.665 81.0423 133.311 80.485 129.935 80.251C126.907 80.0413 124.071 80.946 121.459 82.4397C115.972 85.5762 111.483 90.5654 106.727 94.6683C104.278 96.7797 101.911 99.0606 99.2489 100.899C98.0912 101.699 96.8374 102.434 95.8315 103.428C94.8329 104.413 94.7231 105.309 94.3818 106.621C93.7737 108.956 90.7537 110.098 88.866 111.33C86.1965 113.072 83.3664 114.301 80.3736 115.37C74.0361 117.634 67.6484 119.215 61.0225 120.383C57.7784 120.956 54.5614 121.331 51.2859 121.64C48.4622 121.906 45.4598 122.776 42.6396 122.082C43.4518 120.764 44.8912 119.973 46.0122 118.955C47.4573 117.642 48.6863 116.086 49.7801 114.474C51.9089 111.336 53.4023 107.968 53.745 104.161C54.0542 100.735 53.6999 96.6368 51.6325 93.7425C50.9185 92.7425 49.5055 92.4707 48.8667 91.5699C48.231 90.6748 48.4735 89.1334 48.1254 88.0897C47.2398 85.4347 44.6113 82.1446 42.2979 80.6025C39.7883 78.9291 36.1171 78.3146 33.2182 79.1864C27.8474 80.802 24.5483 86.5416 22.0906 91.1803C20.7482 88.3555 22.9963 84.1643 20.3737 81.851C18.1617 79.8994 16.406 83.6797 15.6662 85.297C12.1933 92.889 11.4045 100.941 9.94953 109.064C9.35654 108.48 9.66045 106.98 9.71622 106.283C9.81999 104.984 9.81011 103.711 9.81293 102.408C9.81999 99.1153 10.432 95.8077 10.1514 92.518C9.98941 90.6162 9.38301 86.6065 6.62016 87.2383C4.27706 87.7741 2.80938 91.0691 2.07316 93.0835C1.01126 95.9891 0.766088 98.8654 0.832199 101.935C0.905299 105.326 0.259156 108.662 0.102615 112.049C-0.201643 118.627 0.0989106 125.148 1.9864 131.497C5.07716 141.893 12.1838 150.531 21.6684 155.747C26.8941 158.621 32.6912 160.44 38.6514 160.831C41.8814 161.043 44.9996 160.658 48.202 160.324C51.3621 159.995 54.5389 159.842 57.6937 159.456C64.7191 158.594 71.5649 156.37 77.9508 153.377C81.3121 151.801 84.4733 149.867 87.7796 148.187C89.1064 147.514 90.0026 146.671 91.1349 145.734C92.2573 144.805 92.5679 144.732 93.8446 144.732C93.4701 143.73 94.5629 143.422 95.0493 142.788C95.0221 143.095 94.9946 143.403 94.9674 143.71C95.338 142.906 95.6832 142.913 96.0026 143.733C96.3182 142.815 96.5519 141.871 96.9331 140.977C98.3905 141.714 98.2676 143.467 100.217 142.187C101.822 141.134 103.297 139.891 104.933 138.858C108.66 136.506 111.874 133.445 115.611 131.12C115.611 133.385 115.771 135.669 115.468 137.922C115.18 140.065 114.381 142.068 113.744 144.119C112.571 147.904 112.49 151.949 111.189 155.695C110.652 157.247 109.251 158.544 108.849 160.054C108.439 161.596 109.385 162.83 107.8 163.842C106.681 164.555 105.284 164.856 104.046 165.288C102.157 165.946 100.364 166.875 98.526 167.663C89.903 171.358 81.4922 175.121 73.5031 180.089C65.9214 184.803 58.2238 189.672 51.2591 195.271C45.2145 200.13 39.1043 206.413 37.6328 214.34C36.205 222.028 40.0093 230.282 47.6479 232.814C51.6195 234.13 56.1096 233.967 60.2456 234.024C64.6962 234.086 69.4126 233.013 73.7883 232.237C78.4093 231.417 82.9513 230.135 87.5858 229.403C92.0325 228.7 96.1107 227.131 100.485 226.163C105.143 225.133 109.921 224.574 114.605 223.648C116.714 223.23 118.78 222.614 120.895 222.228C123.21 221.805 125.551 221.647 127.843 221.087C132.29 220 136.547 218.248 141.013 217.237C143.021 216.782 144.998 216.173 147.007 215.749C148.856 215.357 150.297 214.318 152.151 215.172C153.648 215.861 154.842 217.044 156.26 217.868C158.097 218.936 160.035 219.893 161.951 220.813C165.802 222.66 169.795 223.937 173.821 225.324C178.049 226.782 182.202 228.443 186.583 229.406C191.074 230.392 195.656 230.666 200.178 231.447C209.44 233.044 218.623 233.761 228.024 233.82C232.776 233.849 237.527 233.286 242.268 233.353C246.465 233.412 250.114 234.358 253.951 232.127C260.083 228.562 267.196 223.191 267.045 215.391C266.908 208.326 262.671 201.576 258.696 196.005C253.869 189.238 246.986 184.473 240.241 179.805C233.052 174.831 224.977 171.394 217.421 167.051C213.557 164.831 209.993 162.442 205.797 160.863C203.794 160.111 201.84 159.237 199.861 158.426C198.268 157.774 195.968 157.413 194.604 156.331C193.754 155.655 193.672 154.632 193.448 153.628C192.95 151.405 192.169 149.298 191.411 147.154C189.948 143.015 188.976 138.8 188.347 134.459C187.748 130.322 186.417 126.018 187.106 121.813C191.638 126.196 196.295 130.41 200.932 134.678C202.669 136.277 204.375 137.91 206.121 139.499C207.433 140.692 209.073 142.465 210.901 142.819C213.235 143.272 212.382 140.689 213.985 140.289C214.965 140.045 217.919 142.534 218.694 143.026C223.603 146.142 229.039 148.117 234.439 150.239C240.101 152.463 245.924 154.439 252.017 154.999C257.644 155.517 263.399 154.852 268.83 153.319C279.645 150.266 287.604 143.021 293.445 133.63C300.1 122.929 304.943 110.393 304.551 97.6184Z" fill="black"/>
<path fill-rule="evenodd" clip-rule="evenodd" d="M139.254 74.2898C139.252 74.293 139.235 74.329 139.235 74.329C139.256 74.3146 139.262 74.3017 139.254 74.2898Z" fill="black"/>
<path fill-rule="evenodd" clip-rule="evenodd" d="M139.775 74.4281C139.735 74.0872 139.647 73.7536 139.513 73.4268C139.155 73.9943 138.835 74.2375 139.305 74.8386C139.461 74.7017 139.618 74.5651 139.775 74.4281Z" fill="black"/>
<path fill-rule="evenodd" clip-rule="evenodd" d="M164.716 155.555C165.116 155.128 164.415 154.968 164.149 154.962C164.176 155.419 163.949 156.515 164.575 156.727C164.425 156.313 164.472 155.923 164.716 155.555Z" fill="black"/>
<path fill-rule="evenodd" clip-rule="evenodd" d="M154.15 66.3825C153.462 67.7118 154.982 68.124 155.863 67.482C156.525 66.9991 156.916 65.7683 157.025 64.9787C157.377 62.4239 155.589 59.992 154.698 57.7249C154.468 57.139 154.152 55.1292 153.41 55.0741C152.558 55.0106 152.495 56.8615 152.484 57.3391C152.451 58.7792 152.832 60.2461 153.279 61.6054C153.761 63.0709 154.954 64.8301 154.15 66.3825Z" fill="black"/>
<path fill-rule="evenodd" clip-rule="evenodd" d="M157.424 61.0516C160.069 63.4073 162.186 59.4837 162.001 57.1629C161.955 56.5879 161.567 54.4677 160.476 55.2393C159.928 55.6268 160.395 56.8866 160.134 57.4397C158.869 60.1208 157.65 55.9618 156.798 55.6353C155.761 55.2375 155.657 56.5996 155.659 57.3278C155.661 58.7732 156.349 60.0943 157.424 61.0516Z" fill="black"/>
<path fill-rule="evenodd" clip-rule="evenodd" d="M147.821 61.4177C148.444 60.4364 149.21 59.1202 149.295 57.9445C149.426 56.1172 148.361 56.2697 147.485 57.5446C146.866 58.4453 146.401 59.973 145.035 59.5932C143.347 59.1252 143.863 56.8563 142.919 55.7783C140.534 58.9819 145.047 65.7839 147.821 61.4177Z" fill="black"/>
<path fill-rule="evenodd" clip-rule="evenodd" d="M151.395 71.2214C152.381 71.4346 154.954 71.3562 154.062 69.8455C152.938 67.943 149.201 70.747 151.395 71.2214Z" fill="black"/>
<path fill-rule="evenodd" clip-rule="evenodd" d="M185.954 14.4811C186.135 13.9434 185.887 13.8457 185.456 13.4222C185.049 13.7986 185.571 14.1945 185.954 14.4811Z" fill="black"/>
<path fill-rule="evenodd" clip-rule="evenodd" d="M204.355 111.882C205.006 111.986 205.215 111.641 204.983 110.849C203.956 110.783 203.747 111.127 204.355 111.882Z" fill="black"/>
<path fill-rule="evenodd" clip-rule="evenodd" d="M168.816 28.794C169.534 29.1222 169.259 29.7957 169.246 30.3647C169.616 29.963 170.363 29.2281 170.059 28.651C169.591 27.7612 168.366 28.5886 168.816 28.794Z" fill="black"/>
<path fill-rule="evenodd" clip-rule="evenodd" d="M144.364 17.5925C144.254 17.379 144.145 17.1654 144.035 16.9519C143.59 17.3098 142.901 18.2558 143.61 18.7167C143.9 18.3641 144.151 17.9896 144.364 17.5925Z" fill="black"/>
<path fill-rule="evenodd" clip-rule="evenodd" d="M152.977 23.8715C153.87 24.5718 153.442 22.4219 153.415 22.2465C153.282 22.4985 152.526 23.5175 152.977 23.8715Z" fill="black"/>
<path fill-rule="evenodd" clip-rule="evenodd" d="M152.482 22.7798C152.414 22.6023 152.345 22.4244 152.277 22.2465C151.915 22.5818 151.472 23.2662 152.07 23.6583C152.234 23.3837 152.371 23.0908 152.482 22.7798Z" fill="black"/>
<path fill-rule="evenodd" clip-rule="evenodd" d="M158.155 30.1624C158.228 30.2295 158.301 30.2969 158.373 30.3647C158.668 29.7703 158.333 29.3241 157.777 29.3058C157.816 29.6393 157.942 29.9249 158.155 30.1624Z" fill="black"/>
<path fill-rule="evenodd" clip-rule="evenodd" d="M134.221 97.017C134.576 96.7759 134.897 96.5006 135.187 96.1917C134.138 95.5508 134.766 96.94 133.504 96.0869C133.232 96.4628 133.676 97.3043 134.221 97.017Z" fill="black"/>
<path fill-rule="evenodd" clip-rule="evenodd" d="M178.285 155.315C178.683 154.703 178.755 154.721 178.211 154.256C177.757 155.013 177.804 154.818 178.285 155.315Z" fill="black"/>
<path fill-rule="evenodd" clip-rule="evenodd" d="M94.9482 57.9234C95.1653 58.1497 95.3824 58.3763 95.5995 58.6022C95.7008 58.306 96.2535 57.4688 95.878 57.1903C95.5684 57.4346 95.2581 57.6788 94.9482 57.9234Z" fill="black"/>
<path fill-rule="evenodd" clip-rule="evenodd" d="M102.669 60.163C102.323 60.1051 101.493 59.8523 101.302 60.1746C101.809 60.59 102.953 60.2106 102.669 60.163Z" fill="black"/>
</svg>
