<svg viewBox="0 0 20 19" xmlns="http://www.w3.org/2000/svg">
<path d="M19.926 9.59677C19.7684 9.36759 15.9834 4 9.99996 4C4.8657 4 0.29062 9.33677 0.0981169 9.56427C-0.0327056 9.71928 -0.0327056 9.94678 0.0981169 10.1026C0.29062 10.3301 4.8657 15.6669 9.99996 15.6669C15.1342 15.6669 19.7093 10.3301 19.9018 10.1026C20.0226 9.95928 20.0335 9.75178 19.926 9.59677ZM9.99996 14.8335C5.88407 14.8335 1.97065 10.9085 0.976491 9.83346C1.96901 8.75762 5.87825 4.83337 9.99996 4.83337C14.8159 4.83337 18.2151 8.75262 19.0451 9.81096C18.0867 10.8518 14.1509 14.8335 9.99996 14.8335Z" fill="currentColor"/>
<path d="M9.99988 6.5C8.16153 6.5 6.6665 7.99502 6.6665 9.83338C6.6665 11.6717 8.16153 13.1668 9.99988 13.1668C11.8382 13.1668 13.3333 11.6717 13.3333 9.83338C13.3333 7.99502 11.8382 6.5 9.99988 6.5ZM9.99988 12.3335C8.62154 12.3335 7.49984 11.2118 7.49984 9.83342C7.49984 8.45507 8.62154 7.33337 9.99988 7.33337C11.3782 7.33337 12.4999 8.45507 12.4999 9.83342C12.4999 11.2118 11.3782 12.3335 9.99988 12.3335Z" fill="currentColor"/>
<line x1="1" y1="18.2929" x2="18.2929" y2="1" stroke="currentColor" stroke-linecap="round"/>
</svg>
